<svg xmlns="http://www.w3.org/2000/svg" width="137.06" height="32.305" fill="currentColor" stroke="currentColor"><path fill-rule="evenodd" d="m117.04.525.21-.35q1.05.035 2.152.14a7.335 7.335 0 0 1 1.03.169 5.503 5.503 0 0 1 .913.304 3.103 3.103 0 0 1 .804.501 2.703 2.703 0 0 1 .491.566 1.791 1.791 0 0 1 .254.65q.072.376.02.839a4.399 4.399 0 0 1-.064.401l-1.575.91h8.33l2.17-2.59a24.986 24.986 0 0 1 .44.301q.229.159.48.341a38.515 38.515 0 0 1 .007.006q.508.367 1.016.77.507.402.945.805.408.375.71.705a8.13 8.13 0 0 1 .042.047l-.28.35h-8.96l3.115 1.155a24.285 24.285 0 0 1-1.173 1.176 30.311 30.311 0 0 1-.91.819q-1.172 1.015-2.572 1.785h6.58l2.17-2.59a24.986 24.986 0 0 1 .44.301q.229.159.48.341a38.515 38.515 0 0 1 .007.006q.508.367 1.016.77a23.654 23.654 0 0 1 .847.704 21.474 21.474 0 0 1 .115.101 11.832 11.832 0 0 1 .371.342q.18.173.331.336a6.724 6.724 0 0 1 .068.074l-.28.35H105.7l-.175-.735h10.535q-.63-1.295-1.417-2.45-.788-1.155-1.593-2.065l.28-.315q1.085.175 2.135.403a6.398 6.398 0 0 1 .915.267 4.659 4.659 0 0 1 .87.432 2.887 2.887 0 0 1 .678.596 2.535 2.535 0 0 1 .372.612q.288.671-.008 1.692a5.221 5.221 0 0 1-.062.198l-1.505.63h6.58q.665-1.05 1.12-2.117a39.736 39.736 0 0 0 .317-.764q.152-.379.277-.717a20.788 20.788 0 0 0 .141-.392l-.21-.91.035-.035H107.8l-.175-.735h13.23Q120.05 3.5 119 2.38q-.902-.962-1.701-1.641a13.775 13.775 0 0 0-.259-.214Zm-6.79 12.32h3.64l.455 1.05h13.23l1.96-1.995a27.968 27.968 0 0 1 .38.282q.198.149.415.317a45.773 45.773 0 0 1 .062.049q.473.367.946.77.472.402.91.805.408.375.71.705a8.13 8.13 0 0 1 .042.047l-1.4 1.435v6.755h-3.5v-.98h-5.075v3.5h8.33l2.17-2.485q.241.168.539.387a52.915 52.915 0 0 1 .283.208 23.719 23.719 0 0 1 .719.555 26.553 26.553 0 0 1 .244.197 22.18 22.18 0 0 1 .817.705 20.121 20.121 0 0 1 .111.1q.437.403.717.718l-.28.35h-13.65v5.81h-3.57v-5.81H105.84l-.21-.735h13.825v-3.5h-5.075v1.435h-3.5v-9.38l-.63-.735v-.56ZM8.995 20.93H18.9v-2.59l-.735-.7v-.56h3.64l2.765-3.01H11.41l-.21-.735h13.195l2.45-1.785q.77.7 1.523 1.575a17.147 17.147 0 0 1 1.272 1.671 15.737 15.737 0 0 1 .075.114l-1.855.455-5.53 2.485v3.08h4.235l2.275-2.555q.847.576 1.842 1.366a43.288 43.288 0 0 1 .066.051q1.032.823 1.732 1.523l-.315.385H22.33v7.21q0 .525-.28 1.05t-.682.963q-.403.437-.893.805-.49.367-.91.577l-5.6-3.64.105-.28 4.83.245V21.7H9.205l-.21-.77Zm72.17-8.33-.21-.385a151.089 151.089 0 0 0 2.914-1.286 164.132 164.132 0 0 0 .096-.044q1.54-.7 3.08-1.505V1.785l-.7-.735V.525h4.2v6.93a40.62 40.62 0 0 0 2.981-1.98 37.277 37.277 0 0 0 .187-.137 24.846 24.846 0 0 0 2.024-1.667 21.563 21.563 0 0 0 .653-.626l.035-.945.42-.315 3.185 2.87Q95.725 7.84 90.545 9.94v3.15q0 .643.221.961a.782.782 0 0 0 .041.054.717.717 0 0 0 .264.192q.231.104.593.12a3.115 3.115 0 0 0 .141.003h6.44l.63-5.25h.385l2.73 5.95q-.49 1.015-1.33 1.628a3.188 3.188 0 0 1-1.065.497q-.432.115-.937.143a5.798 5.798 0 0 1-.168.007h-7.735a6.276 6.276 0 0 1-1.026-.078q-.529-.088-.944-.275a2.489 2.489 0 0 1-.883-.644q-.857-.998-.857-2.888V11.2q-1.435.455-2.887.788-1.453.332-2.993.612ZM70.56 22.54h13.86v-4.375l-.735-.7v-.56h4.375v5.635h8.015l2.275-2.73a22.889 22.889 0 0 1 1.246.863 27.599 27.599 0 0 1 .766.59q1.033.822 1.768 1.627l-.28.385H88.06v8.96h-3.64v-8.96H70.77l-.21-.735Zm-35.035-8.715h17.5a34.222 34.222 0 0 0 1.107-2.049 27.961 27.961 0 0 0 .556-1.188 33.971 33.971 0 0 0 1.014-2.591 30.534 30.534 0 0 0 .158-.472l-.315-.875.315-.455 4.34 1.47a17.331 17.331 0 0 1-2.214 2.964 19.584 19.584 0 0 1-.394.413q-1.557 1.593-3.552 2.783h7.175l2.17-2.625a42.016 42.016 0 0 1 .417.282q.249.17.528.366.525.367 1.05.787a43.266 43.266 0 0 1 .758.62 38.354 38.354 0 0 1 .24.202 10.745 10.745 0 0 1 .332.295q.258.239.455.458l-.315.35H35.7l-.175-.735Zm5.005 3.01h3.78l.455 1.085H56.91l1.96-1.925q.42.28.893.63a23.719 23.719 0 0 1 .718.555 26.553 26.553 0 0 1 .244.197 37.004 37.004 0 0 1 .705.594 32.578 32.578 0 0 1 .222.194 10.695 10.695 0 0 1 .404.373 7.769 7.769 0 0 1 .349.362l-1.19 1.19v11.935h-3.57V29.82H44.8v2.24h-3.57V18.095l-.7-.735v-.525ZM47.285.35l.21-.35a25.777 25.777 0 0 1 1.464.191 20.115 20.115 0 0 1 1.038.194q1.004.216 1.722.596a4.537 4.537 0 0 1 .186.104 2.887 2.887 0 0 1 .75.626 2.611 2.611 0 0 1 .37.582q.35.752.14 1.907l-1.75.7h7.84l2.17-2.59a24.986 24.986 0 0 1 .44.301q.229.159.48.341a38.515 38.515 0 0 1 .007.006q.508.367 1.016.787.507.42.945.823a32.96 32.96 0 0 1 .31.289q.123.116.233.223a18.666 18.666 0 0 1 .209.205l-.28.385h-27.09l-.175-.77h13.02a25.887 25.887 0 0 0-1.492-2.414 27.634 27.634 0 0 0-.013-.019 16.783 16.783 0 0 0-1.05-1.361 13.736 13.736 0 0 0-.7-.756ZM70.56 13.475l-.28-.315q1.54-1.47 2.87-3.027a54.43 54.43 0 0 0 1.867-2.307 47.294 47.294 0 0 0 .565-.756 38.783 38.783 0 0 0 1.276-1.847 32.171 32.171 0 0 0 .667-1.075 49.34 49.34 0 0 0 .776-1.356q.36-.655.659-1.252l-.35-.98.28-.49 4.48 1.365q-1.085 1.89-2.38 3.553a31.922 31.922 0 0 1-2.507 2.842 35.387 35.387 0 0 1-.398.395h1.61v11.06H76.16V9.94q-2.625 2.1-5.6 3.535ZM5.88 31.15l-4.655-1.435q.84-1.75 1.768-3.885a547.493 547.493 0 0 0 1.42-3.301 612.183 612.183 0 0 0 .487-1.144q.98-2.31 1.908-4.742.927-2.433 1.767-4.813l.525.14q-.21 1.925-.577 4.148-.368 2.222-.823 4.55-.455 2.327-.997 4.637a103.576 103.576 0 0 1-.844 3.347 91.307 91.307 0 0 1-.294 1.063l.56.91-.245.525Zm4.305-25.62-.105-.455q2.45-.49 4.795-.997 2.345-.508 4.463-1.033 2.117-.525 3.92-1.032a59.133 59.133 0 0 0 1.493-.441q.68-.211 1.281-.419a34.01 34.01 0 0 0 .393-.138L26.74.21l.56-.14 2.625 3.5a48.221 48.221 0 0 1-1.666.327q-1.137.203-2.446.391a113.905 113.905 0 0 1-3.333.424 133.88 133.88 0 0 1-1.603.171q-2.607.262-5.337.437-2.73.175-5.355.21ZM44.8 24.185v4.9h12.845v-4.9H44.8Zm12.845-5.53H44.8v4.795h12.845v-4.795Zm56.735-.385v3.08h13.72v-3.08h-13.72Zm13.72-3.64h-13.72v2.94h13.72v-2.94ZM23.03 12.25l-.385-.245a37.879 37.879 0 0 0 1.273-1.772 30.059 30.059 0 0 0 .845-1.325 34.392 34.392 0 0 0 .717-1.252q.42-.772.735-1.461l-.28-.945.315-.385 4.025 1.75a19.47 19.47 0 0 1-1.203 1.279q-.857.837-1.929 1.714-1.908 1.557-4.113 2.642ZM0 9.03l.245-.315q1.575.28 2.923.77a8.713 8.713 0 0 1 1.085.476q.637.336 1.12.749a3.499 3.499 0 0 1 .661.743 2.866 2.866 0 0 1 .406.972q.186.869-.315 1.93a5.516 5.516 0 0 1-.14.275l-1.785.63a37.535 37.535 0 0 0-.885-1.642q-.478-.834-.952-1.546a21.95 21.95 0 0 0-.175-.26Q1.19 10.36 0 9.03Zm2.52-7.35.21-.35a15.972 15.972 0 0 1 2.342.389 14.335 14.335 0 0 1 .51.136 8.693 8.693 0 0 1 1.171.422 6.347 6.347 0 0 1 1.105.628 3.637 3.637 0 0 1 .744.701 2.988 2.988 0 0 1 .498.926q.315.963-.245 2.223l-1.68.77A30.18 30.18 0 0 0 5.938 5.61a23.691 23.691 0 0 0-.985-1.305Q3.815 2.905 2.52 1.68Zm40.215 5.46.315-.35a15.427 15.427 0 0 1 1.473.389 11.847 11.847 0 0 1 1.152.433 7.45 7.45 0 0 1 .916.477q.466.287.825.621a4.38 4.38 0 0 1 .114.11q.7.7.91 1.68a3.061 3.061 0 0 1 .066.605q.009.748-.311 1.635l-2.205.63q-.315-.84-.7-1.715-.385-.875-.805-1.697a22.023 22.023 0 0 0-.762-1.373 19.955 19.955 0 0 0-.113-.185 15.873 15.873 0 0 0-.391-.603q-.248-.362-.484-.657Zm-25.2-1.155.245-.28a10.66 10.66 0 0 1 1.292.362 8.264 8.264 0 0 1 1.001.426 5.61 5.61 0 0 1 .836.517 4.144 4.144 0 0 1 .739.707 2.946 2.946 0 0 1 .465.797 2.571 2.571 0 0 1 .165.761q.052.84-.508 1.715l-1.995.455q-.385-1.47-.927-2.852-.543-1.383-1.313-2.608Zm-6.09 1.05.245-.315a15.039 15.039 0 0 1 1.244.308q.602.178 1.12.395a9.162 9.162 0 0 1 .034.014 6.639 6.639 0 0 1 .753.374q.516.301.874.659a2.469 2.469 0 0 1 .533.773 2.311 2.311 0 0 1 .167.61 2.146 2.146 0 0 1 .019.283q0 .677-.404 1.484l-1.96.56a22.055 22.055 0 0 0-.66-1.742 18.327 18.327 0 0 0-.442-.953 15.666 15.666 0 0 0-.983-1.684 18.477 18.477 0 0 0-.54-.766Z" vector-effect="non-scaling-stroke"/></svg>